<svg xmlns="http://www.w3.org/2000/svg" viewBox="0 0 100 100">
  <defs>
    <linearGradient id="purpleGrad" x1="0%" y1="0%" x2="100%" y2="100%">
      <stop offset="0%" style="stop-color:#4c1d95;stop-opacity:1" />
      <stop offset="100%" style="stop-color:#6d28d9;stop-opacity:1" />
    </linearGradient>
  </defs>
  
  <!-- Background rounded square -->
  <rect x="10" y="10" width="80" height="80" rx="16" ry="16" fill="url(#purpleGrad)"/>
  
  <!-- Profile icon outline -->
  <g fill="none" stroke="white" stroke-width="3" stroke-linecap="round" stroke-linejoin="round">
    <!-- Head circle -->
    <circle cx="50" cy="35" r="8"/>
    <!-- Headphones/collar -->
    <path d="M42 28c0-4.4 3.6-8 8-8s8 3.6 8 8"/>
    <path d="M38 30v8c0 1.1.9 2 2 2h2"/>
    <path d="M58 30v8c0 1.1.9 2 2 2h2c1.1 0 2-.9 2-2v-8"/>
    <!-- Body -->
    <path d="M30 75v-8c0-11 9-20 20-20s20 9 20 20v8"/>
    <!-- Letter F -->
    <text x="50" y="68" font-family="Arial, sans-serif" font-size="16" font-weight="bold" text-anchor="middle" fill="white">F</text>
  </g>
</svg>